<mxfile host="app.diagrams.net" modified="2022-02-03T04:00:37.714Z" agent="5.0 (Macintosh; Intel Mac OS X 10_15_7) AppleWebKit/537.36 (KHTML, like Gecko) Chrome/97.0.4692.99 Safari/537.36" etag="6-VAtesZfrKfUt4Q6wL1" version="15.7.0" type="github">
  <diagram id="ykEdmkBY5AS28f-KaZ9Q" name="Page-1">
    <mxGraphModel dx="946" dy="515" grid="1" gridSize="10" guides="1" tooltips="1" connect="1" arrows="1" fold="1" page="1" pageScale="1" pageWidth="827" pageHeight="1169" math="0" shadow="0">
      <root>
        <mxCell id="0" />
        <mxCell id="1" parent="0" />
        <mxCell id="Y2ew18JbZjwjVLUNqU0x-1" value="" style="endArrow=none;html=1;rounded=0;" edge="1" parent="1">
          <mxGeometry width="50" height="50" relative="1" as="geometry">
            <mxPoint x="160" y="430" as="sourcePoint" />
            <mxPoint x="160" y="180" as="targetPoint" />
          </mxGeometry>
        </mxCell>
        <mxCell id="Y2ew18JbZjwjVLUNqU0x-2" value="" style="endArrow=none;html=1;rounded=0;" edge="1" parent="1">
          <mxGeometry width="50" height="50" relative="1" as="geometry">
            <mxPoint x="160" y="180" as="sourcePoint" />
            <mxPoint x="250" y="180" as="targetPoint" />
          </mxGeometry>
        </mxCell>
        <mxCell id="Y2ew18JbZjwjVLUNqU0x-3" value="" style="endArrow=none;html=1;rounded=0;" edge="1" parent="1">
          <mxGeometry width="50" height="50" relative="1" as="geometry">
            <mxPoint x="160" y="430" as="sourcePoint" />
            <mxPoint x="220" y="430" as="targetPoint" />
          </mxGeometry>
        </mxCell>
        <mxCell id="Y2ew18JbZjwjVLUNqU0x-4" value="107" style="text;html=1;strokeColor=none;fillColor=none;align=center;verticalAlign=middle;whiteSpace=wrap;rounded=0;" vertex="1" parent="1">
          <mxGeometry x="170" y="150" width="60" height="30" as="geometry" />
        </mxCell>
        <mxCell id="Y2ew18JbZjwjVLUNqU0x-5" value="" style="endArrow=none;html=1;rounded=0;" edge="1" parent="1">
          <mxGeometry width="50" height="50" relative="1" as="geometry">
            <mxPoint x="219.5" y="430" as="sourcePoint" />
            <mxPoint x="219.5" y="240" as="targetPoint" />
          </mxGeometry>
        </mxCell>
        <mxCell id="Y2ew18JbZjwjVLUNqU0x-6" value="" style="endArrow=none;html=1;rounded=0;" edge="1" parent="1">
          <mxGeometry width="50" height="50" relative="1" as="geometry">
            <mxPoint x="250" y="240" as="sourcePoint" />
            <mxPoint x="250" y="180" as="targetPoint" />
          </mxGeometry>
        </mxCell>
        <mxCell id="Y2ew18JbZjwjVLUNqU0x-7" value="" style="endArrow=none;html=1;rounded=0;" edge="1" parent="1">
          <mxGeometry width="50" height="50" relative="1" as="geometry">
            <mxPoint x="220" y="240" as="sourcePoint" />
            <mxPoint x="250" y="240" as="targetPoint" />
          </mxGeometry>
        </mxCell>
        <mxCell id="Y2ew18JbZjwjVLUNqU0x-8" value="73" style="text;html=1;strokeColor=none;fillColor=none;align=center;verticalAlign=middle;whiteSpace=wrap;rounded=0;" vertex="1" parent="1">
          <mxGeometry x="240" y="200" width="60" height="30" as="geometry" />
        </mxCell>
        <mxCell id="Y2ew18JbZjwjVLUNqU0x-9" value="307" style="text;html=1;strokeColor=none;fillColor=none;align=center;verticalAlign=middle;whiteSpace=wrap;rounded=0;" vertex="1" parent="1">
          <mxGeometry x="120" y="280" width="60" height="30" as="geometry" />
        </mxCell>
        <mxCell id="Y2ew18JbZjwjVLUNqU0x-10" value="69" style="text;html=1;strokeColor=none;fillColor=none;align=center;verticalAlign=middle;whiteSpace=wrap;rounded=0;" vertex="1" parent="1">
          <mxGeometry x="160" y="430" width="60" height="30" as="geometry" />
        </mxCell>
        <mxCell id="Y2ew18JbZjwjVLUNqU0x-11" value="38" style="text;html=1;strokeColor=none;fillColor=none;align=center;verticalAlign=middle;whiteSpace=wrap;rounded=0;" vertex="1" parent="1">
          <mxGeometry x="204" y="220" width="60" height="30" as="geometry" />
        </mxCell>
        <mxCell id="Y2ew18JbZjwjVLUNqU0x-13" value="234" style="text;html=1;strokeColor=none;fillColor=none;align=center;verticalAlign=middle;whiteSpace=wrap;rounded=0;" vertex="1" parent="1">
          <mxGeometry x="210" y="320" width="60" height="30" as="geometry" />
        </mxCell>
        <mxCell id="Y2ew18JbZjwjVLUNqU0x-14" value="主卧飘窗" style="text;html=1;strokeColor=none;fillColor=none;align=center;verticalAlign=middle;whiteSpace=wrap;rounded=0;" vertex="1" parent="1">
          <mxGeometry x="190" y="30" width="60" height="30" as="geometry" />
        </mxCell>
        <mxCell id="Y2ew18JbZjwjVLUNqU0x-15" value="" style="endArrow=none;html=1;rounded=0;" edge="1" parent="1">
          <mxGeometry width="50" height="50" relative="1" as="geometry">
            <mxPoint y="540" as="sourcePoint" />
            <mxPoint x="820" y="540" as="targetPoint" />
          </mxGeometry>
        </mxCell>
        <mxCell id="Y2ew18JbZjwjVLUNqU0x-16" value="" style="endArrow=none;html=1;rounded=0;" edge="1" parent="1">
          <mxGeometry width="50" height="50" relative="1" as="geometry">
            <mxPoint x="440" y="1160" as="sourcePoint" />
            <mxPoint x="440" y="10" as="targetPoint" />
          </mxGeometry>
        </mxCell>
        <mxCell id="Y2ew18JbZjwjVLUNqU0x-17" value="次卧飘窗" style="text;html=1;strokeColor=none;fillColor=none;align=center;verticalAlign=middle;whiteSpace=wrap;rounded=0;" vertex="1" parent="1">
          <mxGeometry x="530" y="100" width="60" height="30" as="geometry" />
        </mxCell>
        <mxCell id="Y2ew18JbZjwjVLUNqU0x-18" value="" style="endArrow=none;html=1;rounded=0;" edge="1" parent="1">
          <mxGeometry width="50" height="50" relative="1" as="geometry">
            <mxPoint x="690" y="190" as="sourcePoint" />
            <mxPoint x="690" y="40" as="targetPoint" />
          </mxGeometry>
        </mxCell>
        <mxCell id="Y2ew18JbZjwjVLUNqU0x-19" value="69" style="text;html=1;strokeColor=none;fillColor=none;align=center;verticalAlign=middle;whiteSpace=wrap;rounded=0;" vertex="1" parent="1">
          <mxGeometry x="690" y="190" width="60" height="30" as="geometry" />
        </mxCell>
        <mxCell id="Y2ew18JbZjwjVLUNqU0x-20" value="" style="endArrow=none;html=1;rounded=0;" edge="1" parent="1">
          <mxGeometry width="50" height="50" relative="1" as="geometry">
            <mxPoint x="690" y="190" as="sourcePoint" />
            <mxPoint x="750" y="190" as="targetPoint" />
          </mxGeometry>
        </mxCell>
        <mxCell id="Y2ew18JbZjwjVLUNqU0x-21" value="" style="endArrow=none;html=1;rounded=0;" edge="1" parent="1">
          <mxGeometry width="50" height="50" relative="1" as="geometry">
            <mxPoint x="750" y="190" as="sourcePoint" />
            <mxPoint x="750" y="40" as="targetPoint" />
          </mxGeometry>
        </mxCell>
        <mxCell id="Y2ew18JbZjwjVLUNqU0x-22" value="" style="endArrow=none;html=1;rounded=0;" edge="1" parent="1">
          <mxGeometry width="50" height="50" relative="1" as="geometry">
            <mxPoint x="690" y="40" as="sourcePoint" />
            <mxPoint x="750" y="40" as="targetPoint" />
          </mxGeometry>
        </mxCell>
        <mxCell id="Y2ew18JbZjwjVLUNqU0x-23" value="190" style="text;html=1;strokeColor=none;fillColor=none;align=center;verticalAlign=middle;whiteSpace=wrap;rounded=0;" vertex="1" parent="1">
          <mxGeometry x="640" y="100" width="60" height="30" as="geometry" />
        </mxCell>
        <mxCell id="Y2ew18JbZjwjVLUNqU0x-25" value="" style="endArrow=none;html=1;rounded=0;" edge="1" parent="1">
          <mxGeometry width="50" height="50" relative="1" as="geometry">
            <mxPoint x="440" y="250" as="sourcePoint" />
            <mxPoint x="824" y="250" as="targetPoint" />
          </mxGeometry>
        </mxCell>
        <mxCell id="Y2ew18JbZjwjVLUNqU0x-26" value="小卧室飘窗" style="text;html=1;strokeColor=none;fillColor=none;align=center;verticalAlign=middle;whiteSpace=wrap;rounded=0;" vertex="1" parent="1">
          <mxGeometry x="521" y="350" width="69" height="30" as="geometry" />
        </mxCell>
        <mxCell id="Y2ew18JbZjwjVLUNqU0x-27" value="" style="endArrow=none;html=1;rounded=0;" edge="1" parent="1">
          <mxGeometry width="50" height="50" relative="1" as="geometry">
            <mxPoint x="640" y="400" as="sourcePoint" />
            <mxPoint x="640" y="340" as="targetPoint" />
          </mxGeometry>
        </mxCell>
        <mxCell id="Y2ew18JbZjwjVLUNqU0x-28" value="69" style="text;html=1;strokeColor=none;fillColor=none;align=center;verticalAlign=middle;whiteSpace=wrap;rounded=0;" vertex="1" parent="1">
          <mxGeometry x="717" y="356" width="60" height="30" as="geometry" />
        </mxCell>
        <mxCell id="Y2ew18JbZjwjVLUNqU0x-29" value="" style="endArrow=none;html=1;rounded=0;" edge="1" parent="1">
          <mxGeometry width="50" height="50" relative="1" as="geometry">
            <mxPoint x="640" y="400" as="sourcePoint" />
            <mxPoint x="730" y="400" as="targetPoint" />
          </mxGeometry>
        </mxCell>
        <mxCell id="Y2ew18JbZjwjVLUNqU0x-30" value="" style="endArrow=none;html=1;rounded=0;" edge="1" parent="1">
          <mxGeometry width="50" height="50" relative="1" as="geometry">
            <mxPoint x="730" y="400" as="sourcePoint" />
            <mxPoint x="730" y="340" as="targetPoint" />
          </mxGeometry>
        </mxCell>
        <mxCell id="Y2ew18JbZjwjVLUNqU0x-31" value="" style="endArrow=none;html=1;rounded=0;" edge="1" parent="1">
          <mxGeometry width="50" height="50" relative="1" as="geometry">
            <mxPoint x="640" y="340" as="sourcePoint" />
            <mxPoint x="730" y="340" as="targetPoint" />
          </mxGeometry>
        </mxCell>
        <mxCell id="Y2ew18JbZjwjVLUNqU0x-32" value="102" style="text;html=1;strokeColor=none;fillColor=none;align=center;verticalAlign=middle;whiteSpace=wrap;rounded=0;" vertex="1" parent="1">
          <mxGeometry x="657" y="400" width="60" height="30" as="geometry" />
        </mxCell>
        <mxCell id="Y2ew18JbZjwjVLUNqU0x-35" value="" style="rounded=1;whiteSpace=wrap;html=1;fillColor=#000000;" vertex="1" parent="1">
          <mxGeometry x="120" y="660" width="110" height="60" as="geometry" />
        </mxCell>
        <mxCell id="Y2ew18JbZjwjVLUNqU0x-36" value="餐桌" style="text;html=1;strokeColor=none;fillColor=none;align=center;verticalAlign=middle;whiteSpace=wrap;rounded=0;" vertex="1" parent="1">
          <mxGeometry x="145" y="580" width="60" height="30" as="geometry" />
        </mxCell>
        <mxCell id="Y2ew18JbZjwjVLUNqU0x-37" value="140" style="text;html=1;strokeColor=none;fillColor=none;align=center;verticalAlign=middle;whiteSpace=wrap;rounded=0;" vertex="1" parent="1">
          <mxGeometry x="145" y="630" width="60" height="30" as="geometry" />
        </mxCell>
        <mxCell id="Y2ew18JbZjwjVLUNqU0x-38" value="80" style="text;html=1;strokeColor=none;fillColor=none;align=center;verticalAlign=middle;whiteSpace=wrap;rounded=0;" vertex="1" parent="1">
          <mxGeometry x="230" y="675" width="60" height="30" as="geometry" />
        </mxCell>
        <mxCell id="Y2ew18JbZjwjVLUNqU0x-40" value="茶几" style="text;html=1;strokeColor=none;fillColor=none;align=center;verticalAlign=middle;whiteSpace=wrap;rounded=0;" vertex="1" parent="1">
          <mxGeometry x="585" y="580" width="60" height="30" as="geometry" />
        </mxCell>
        <mxCell id="Y2ew18JbZjwjVLUNqU0x-41" value="120" style="text;html=1;strokeColor=none;fillColor=none;align=center;verticalAlign=middle;whiteSpace=wrap;rounded=0;" vertex="1" parent="1">
          <mxGeometry x="585" y="640" width="60" height="30" as="geometry" />
        </mxCell>
        <mxCell id="Y2ew18JbZjwjVLUNqU0x-42" value="60" style="text;html=1;strokeColor=none;fillColor=none;align=center;verticalAlign=middle;whiteSpace=wrap;rounded=0;" vertex="1" parent="1">
          <mxGeometry x="657" y="680" width="60" height="30" as="geometry" />
        </mxCell>
        <mxCell id="Y2ew18JbZjwjVLUNqU0x-44" value="" style="ellipse;whiteSpace=wrap;html=1;strokeColor=none;fillColor=default;fontColor=#ffffff;gradientColor=#ffffff;" vertex="1" parent="1">
          <mxGeometry x="560" y="670" width="30" height="50" as="geometry" />
        </mxCell>
        <mxCell id="Y2ew18JbZjwjVLUNqU0x-45" value="" style="ellipse;whiteSpace=wrap;html=1;strokeColor=none;fillColor=default;fontColor=#ffffff;gradientColor=#ffffff;" vertex="1" parent="1">
          <mxGeometry x="630" y="670" width="30" height="50" as="geometry" />
        </mxCell>
        <mxCell id="Y2ew18JbZjwjVLUNqU0x-48" value="" style="rounded=0;whiteSpace=wrap;html=1;fillColor=default;fontColor=#ffffff;strokeColor=none;gradientColor=#ffffff;" vertex="1" parent="1">
          <mxGeometry x="571" y="670" width="76" height="50" as="geometry" />
        </mxCell>
        <mxCell id="Y2ew18JbZjwjVLUNqU0x-49" value="" style="endArrow=none;html=1;rounded=0;" edge="1" parent="1">
          <mxGeometry width="50" height="50" relative="1" as="geometry">
            <mxPoint y="840" as="sourcePoint" />
            <mxPoint x="820" y="840" as="targetPoint" />
          </mxGeometry>
        </mxCell>
      </root>
    </mxGraphModel>
  </diagram>
</mxfile>
